<?xml version="1.0" encoding="UTF-8"?>
<svg width="139px" height="139px" viewBox="0 0 139 139" version="1.1" xmlns="http://www.w3.org/2000/svg" xmlns:xlink="http://www.w3.org/1999/xlink">
    <title>ebid-1</title>
    <g id="Decorative-Illustrations" stroke="none" stroke-width="1" fill="none" fill-rule="evenodd">
        <g id="ebid-1">
            <circle id="Oval" fill="#F1F6FA" cx="69.5" cy="69.5" r="69.5"></circle>
            <circle id="Oval" fill="#F1F6FA" cx="69.5" cy="69.5" r="69.5"></circle>
            <g id="ebid-3" transform="translate(28.000000, 26.000000)">
                <g id="Group-3" fill="#006EBD">
                    <rect id="Rectangle" x="23.6111111" y="77.5090909" width="37.7777778" height="9.49090909" rx="3.26086957"></rect>
                    <rect id="Rectangle" x="34.6296296" y="60.1090909" width="17.3148148" height="22.1454545" rx="3.26086957"></rect>
                    <path d="M76.6708543,0 L8.32914573,0 C3.72908556,0 0,3.95950487 0,8.84380165 L0,56.0107438 C0,60.8950406 3.72908556,64.8545455 8.32914573,64.8545455 L76.6708543,64.8545455 C81.2709144,64.8545455 85,60.8950406 85,56.0107438 L85,8.84380165 C85,3.95950487 81.2709144,0 76.6708543,0 Z M8.32914573,6.80292435 L76.6708543,6.80292435 C77.7324066,6.80292435 78.5929648,7.71665624 78.5929648,8.84380165 L78.5929648,56.0107438 C78.5929648,57.1378892 77.7324066,58.0516211 76.6708543,58.0516211 L8.32914573,58.0516211 C7.26759338,58.0516211 6.40703518,57.1378892 6.40703518,56.0107438 L6.40703518,8.84380165 C6.40703518,7.71665624 7.26759338,6.80292435 8.32914573,6.80292435 Z" id="Rectangle" fill-rule="nonzero"></path>
                    <rect id="Rectangle" x="3.14814815" y="47.4545455" width="78.7037037" height="14.2363636" rx="2.17391304"></rect>
                </g>
                <path d="M76.6708543,0 C81.2709144,0 85,3.95950487 85,8.84380165 L85,8.84380165 L85,56.0107438 C85,60.8950406 81.2709144,64.8545455 76.6708543,64.8545455 L76.6708543,64.8545455 L51.944,64.854 L51.944,77.509 L58.1280193,77.5090909 C59.9289479,77.5090909 61.3888889,78.9690319 61.3888889,80.7699605 L61.3888889,83.7391304 C61.3888889,85.540059 59.9289479,87 58.1280193,87 L26.8719807,87 C25.0710521,87 23.6111111,85.540059 23.6111111,83.7391304 L23.6111111,80.7699605 C23.6111111,78.9690319 25.0710521,77.5090909 26.8719807,77.5090909 L34.629,77.509 L34.629,64.854 L8.32914573,64.8545455 C3.81272302,64.8545455 0.135891037,61.0377137 0.00368108795,56.2762246 L0,56.0107438 L0,8.84380165 C0,3.95950487 3.72908556,0 8.32914573,0 L8.32914573,0 Z M76.6708543,6.80292435 L8.32914573,6.80292435 C7.26759338,6.80292435 6.40703518,7.71665624 6.40703518,8.84380165 L6.40703518,8.84380165 L6.407,47.454 L78.592,47.454 L78.5929648,8.84380165 C78.5929648,7.76789012 77.8088612,6.88643182 76.8143036,6.80852221 L76.6708543,6.80292435 Z" id="Combined-Shape" fill="#434B55"></path>
                <path d="M43.7665149,9.84726291 C43.860515,9.9253225 43.9470975,10.011905 44.0251571,10.1059052 L60.8657889,30.3855667 C61.5652845,31.2279064 61.4494864,32.4778108 60.6071467,33.1773064 C60.2512512,33.4728491 59.803207,33.6346273 59.340598,33.6346273 L51.0808225,33.6338905 L51.0815579,57.0174881 C51.0815579,58.1123992 50.1939571,59 49.099046,59 L35.9008863,59 C34.8059752,59 33.9183744,58.1123992 33.9183744,57.0174881 L33.9178225,33.6338905 L25.6593343,33.6346273 C24.5644233,33.6346273 23.6768225,32.7470265 23.6768225,31.6521154 C23.6768225,31.1895064 23.8386007,30.7414622 24.1341434,30.3855667 L40.9747752,10.1059052 C41.6742707,9.26356543 42.9241752,9.14776735 43.7665149,9.84726291 Z" id="Combined-Shape" stroke="#F1F6FA" stroke-width="2.630435" fill="#006EBD"></path>
            </g>
        </g>
    </g>
</svg>